<svg width="115" height="28" viewBox="0 0 115 28" fill="none" xmlns="http://www.w3.org/2000/svg">
<path d="M11.18 0C11.18 0 1.99865 2.25742 0.28688 11.3562C-1.42489 20.4549 5.08287 25.0388 5.08287 25.0388C5.08287 25.0388 9.12456 28.8004 12.2758 27.8444C13.8514 27.8444 15.0855 25.3129 15.0855 25.3129C15.0855 25.3129 16.4558 21.4131 12.6886 18.6097C9.26288 15.5322 6.52232 12.0424 6.24783 10.9483C5.69885 12.3856 5.69885 14.0258 5.76801 14.848C5.83718 15.6703 6.41857 18.4392 8.09793 20.1161C9.12456 21.1412 11.4545 22.3044 11.4545 22.3044C11.4545 22.3044 13.5099 23.6727 11.5906 24.8359C10.7693 25.315 8.98623 24.2209 8.98623 24.2209C8.98623 24.2209 4.67006 21.7584 3.5051 17.3795C3.5051 17.3795 1.24435 9.99221 7.47762 5.20329C8.29893 12.5237 14.329 16.0803 14.329 16.0803C14.329 16.0803 20.357 20.5952 17.2749 27.9156C17.2749 27.9156 26.4541 26.4783 28.3734 15.7393C28.7149 13.892 28.3734 8.147 24.4678 4.0422C20.5645 -0.0690606 17.4824 0.135963 17.4824 0.135963C17.4824 0.135963 13.5769 -0.412206 13.1662 4.10263C13.3024 6.63414 13.7152 7.04418 15.0163 8.68653C16.3175 10.3289 19.674 11.9691 22.2092 17.1011C22.7582 16.212 22.8252 14.1596 22.8252 14.1596C22.8252 14.1596 23.0306 9.84977 19.6048 7.25137C18.9197 6.56723 17.4133 5.8831 17.4133 5.8831C17.4133 5.8831 14.878 4.10479 16.8643 3.14657C17.6186 2.87249 19.0559 3.55662 19.4687 3.83071C19.8815 4.10479 22.1401 4.71986 24.6062 9.50879C27.0722 14.2977 23.9902 19.5657 23.9902 19.5657C23.9902 19.5657 23.4412 20.729 21.1805 22.8483C21.1805 22.8483 20.6315 18.9485 19.125 17.0342C18.5761 15.871 17.1388 14.5027 17.1388 14.5027C17.1388 14.5027 16.9334 14.1617 14.878 12.5863C12.8226 11.013 8.57558 6.08813 11.1778 0H11.18Z" fill="white"/>
<path d="M37.6009 20.8723C37.2188 20.8723 36.9175 20.7696 36.6971 20.5641C36.4913 20.3586 36.3884 20.0578 36.3884 19.6616V6.4317C36.3884 6.03547 36.4913 5.73462 36.6971 5.52917C36.9175 5.30903 37.2262 5.19897 37.623 5.19897H45.4712C45.7945 5.19897 46.0297 5.27968 46.1767 5.44111C46.3383 5.58787 46.4192 5.808 46.4192 6.10151C46.4192 6.40969 46.3383 6.6445 46.1767 6.80592C46.0297 6.96735 45.7945 7.04807 45.4712 7.04807H38.6812V12.001H45.0303C45.3242 12.001 45.552 12.0817 45.7137 12.2432C45.8901 12.3899 45.9783 12.61 45.9783 12.9035C45.9783 13.2117 45.8901 13.4465 45.7137 13.608C45.552 13.7694 45.3242 13.8501 45.0303 13.8501H38.6812V19.6616C38.6812 20.4687 38.3211 20.8723 37.6009 20.8723Z" fill="white"/>
<path d="M49.8299 20.7182C49.433 20.7182 49.1244 20.6155 48.9039 20.41C48.6982 20.1899 48.5953 19.8817 48.5953 19.4855V6.4317C48.5953 6.03547 48.6982 5.73462 48.9039 5.52917C49.1244 5.30903 49.433 5.19897 49.8299 5.19897H57.8765C58.1851 5.19897 58.4203 5.27968 58.582 5.44111C58.7436 5.58787 58.8244 5.808 58.8244 6.10151C58.8244 6.40969 58.7436 6.6445 58.582 6.80592C58.4203 6.96735 58.1851 7.04807 57.8765 7.04807H50.7999V11.913H57.3915C57.7148 11.913 57.95 11.9937 58.0969 12.1551C58.2586 12.3165 58.3394 12.544 58.3394 12.8375C58.3394 13.1457 58.2586 13.3805 58.0969 13.5419C57.95 13.6887 57.7148 13.7621 57.3915 13.7621H50.7999V18.8691H57.8765C58.1851 18.8691 58.4203 18.9498 58.582 19.1112C58.7436 19.2727 58.8244 19.5001 58.8244 19.7936C58.8244 20.1018 58.7436 20.3366 58.582 20.4981C58.4203 20.6448 58.1851 20.7182 57.8765 20.7182H49.8299Z" fill="white"/>
<path d="M62.7456 20.7182C62.3782 20.7182 62.0916 20.6155 61.8859 20.41C61.6801 20.2045 61.5772 19.9184 61.5772 19.5515V6.27761C61.5772 5.89605 61.6727 5.60988 61.8638 5.4191C62.0696 5.21364 62.3562 5.11092 62.7236 5.11092C63.091 5.11092 63.3703 5.21364 63.5613 5.4191C63.7671 5.60988 63.87 5.89605 63.87 6.27761V18.759H70.7041C71.0274 18.759 71.2773 18.8471 71.4536 19.0232C71.63 19.1846 71.7182 19.4194 71.7182 19.7276C71.7182 20.0358 71.63 20.2779 71.4536 20.454C71.2773 20.6301 71.0274 20.7182 70.7041 20.7182H62.7456Z" fill="white"/>
<path d="M74.9094 20.7182C74.542 20.7182 74.2554 20.6155 74.0497 20.41C73.8439 20.2045 73.741 19.9184 73.741 19.5515V6.27761C73.741 5.89605 73.8366 5.60988 74.0276 5.4191C74.2334 5.21364 74.52 5.11092 74.8874 5.11092C75.2548 5.11092 75.5341 5.21364 75.7251 5.4191C75.9309 5.60988 76.0338 5.89605 76.0338 6.27761V18.759H82.8679C83.1912 18.759 83.4411 18.8471 83.6174 19.0232C83.7938 19.1846 83.882 19.4194 83.882 19.7276C83.882 20.0358 83.7938 20.2779 83.6174 20.454C83.4411 20.6301 83.1912 20.7182 82.8679 20.7182H74.9094Z" fill="white"/>
<path d="M85.4076 20.8723C85.1137 20.8723 84.8785 20.8062 84.7021 20.6742C84.5258 20.5421 84.4229 20.366 84.3935 20.1458C84.3641 19.9257 84.4082 19.6762 84.5258 19.3974L90.5001 6.01345C90.6471 5.66124 90.8308 5.41176 91.0513 5.26501C91.2864 5.11826 91.5436 5.04488 91.8229 5.04488C92.0874 5.04488 92.3299 5.11826 92.5504 5.26501C92.7855 5.41176 92.9766 5.66124 93.1236 6.01345L99.0979 19.3974C99.2302 19.6762 99.2816 19.9331 99.2522 20.1679C99.2228 20.388 99.1273 20.5641 98.9656 20.6962C98.804 20.8136 98.5762 20.8723 98.2822 20.8723C97.9589 20.8723 97.7017 20.7916 97.5106 20.6301C97.3196 20.4687 97.1506 20.2192 97.0036 19.8817L95.4604 16.3156L96.4965 16.9319H87.1051L88.1192 16.3156L86.5981 19.8817C86.4511 20.2339 86.2894 20.4907 86.1131 20.6521C85.9367 20.7989 85.7016 20.8723 85.4076 20.8723ZM91.7788 7.73047L88.4499 15.6112L87.8988 15.0828H95.6808L95.1738 15.6112L91.8229 7.73047H91.7788Z" fill="white"/>
<path d="M102.875 20.8723C102.508 20.8723 102.221 20.7696 102.015 20.5641C101.824 20.3586 101.729 20.0725 101.729 19.7056V6.21157C101.729 5.83001 101.824 5.54384 102.015 5.35306C102.221 5.14761 102.508 5.04488 102.875 5.04488C103.242 5.04488 103.522 5.14761 103.713 5.35306C103.918 5.54384 104.021 5.83001 104.021 6.21157V11.8909H112.729V6.21157C112.729 5.83001 112.825 5.54384 113.016 5.35306C113.222 5.14761 113.508 5.04488 113.876 5.04488C114.243 5.04488 114.522 5.14761 114.713 5.35306C114.904 5.54384 115 5.83001 115 6.21157V19.7056C115 20.0725 114.904 20.3586 114.713 20.5641C114.522 20.7696 114.243 20.8723 113.876 20.8723C113.508 20.8723 113.222 20.7696 113.016 20.5641C112.825 20.3586 112.729 20.0725 112.729 19.7056V13.8061H104.021V19.7056C104.021 20.0725 103.926 20.3586 103.735 20.5641C103.544 20.7696 103.257 20.8723 102.875 20.8723Z" fill="white"/>
</svg>
